<?xml version="1.0" standalone="no"?>
<!DOCTYPE svg PUBLIC "-//W3C//DTD SVG 20010904//EN"
 "http://www.w3.org/TR/2001/REC-SVG-20010904/DTD/svg10.dtd">
<svg version="1.0" xmlns="http://www.w3.org/2000/svg"
 width="1007.000000pt" height="1074.000000pt" viewBox="0 0 1007.000000 1074.000000"
 preserveAspectRatio="xMidYMid meet">

<g transform="translate(0.000000,1074.000000) scale(0.100000,-0.100000)"
fill="#FF0000" stroke="none">
<path d="M4669 10346 c-241 -67 -711 -424 -1096 -834 -234 -248 -372 -383
-457 -446 -533 -397 -1278 -583 -1811 -453 -75 18 -118 22 -255 22 -154 -1
-170 -2 -244 -28 -340 -119 -536 -432 -617 -984 -26 -182 -36 -559 -20 -783
36 -494 150 -1096 312 -1650 380 -1294 996 -2495 1736 -3386 163 -196 521
-549 700 -691 259 -206 649 -451 1028 -649 519 -270 868 -307 1322 -138 254
94 862 440 1183 673 839 608 1624 1717 2207 3116 217 523 427 1183 538 1700
177 818 209 1535 91 2030 -107 446 -327 710 -650 780 -104 23 -313 16 -436
-13 -427 -104 -1018 1 -1510 268 -212 115 -367 234 -530 405 -498 523 -804
790 -1103 965 -169 98 -279 126 -388 96z m2046 -2931 c163 -43 282 -173 320
-350 66 -311 -102 -734 -458 -1160 -252 -301 -358 -626 -301 -925 40 -214 133
-389 347 -655 222 -276 369 -566 412 -812 52 -297 -59 -537 -286 -621 -92 -34
-206 -46 -309 -33 -257 33 -580 188 -845 406 -209 172 -427 298 -599 347 -69
19 -104 23 -236 23 -130 0 -168 -4 -238 -23 -165 -45 -371 -160 -554 -310
-143 -117 -280 -209 -421 -282 -218 -113 -386 -163 -552 -164 -165 0 -283 42
-373 131 -163 163 -174 451 -29 779 52 118 147 279 231 389 212 281 257 343
313 436 252 419 243 770 -31 1133 -29 40 -113 137 -186 217 -159 172 -196 218
-268 328 -116 180 -183 349 -203 516 -32 277 95 492 336 568 99 31 313 31 432
-1 234 -63 465 -185 734 -387 106 -80 183 -120 304 -158 249 -78 510 -93 785
-46 267 46 433 120 650 289 260 203 479 319 690 364 90 20 261 20 335 1z"/>
</g>
</svg>
